<?xml version="1.0" encoding="utf-8"?>
<!-- Generator: Adobe Illustrator 27.0.0, SVG Export Plug-In . SVG Version: 6.00 Build 0)  -->
<svg version="1.1" id="Layer_1" xmlns="http://www.w3.org/2000/svg" xmlns:xlink="http://www.w3.org/1999/xlink" x="0px" y="0px"
	 viewBox="0 0 215 62" style="enable-background:new 0 0 215 62;" xml:space="preserve">
<style type="text/css">
	.st0{clip-path:url(#SVGID_00000054969915018574258090000016537774619095427759_);}
	.st1{clip-path:url(#SVGID_00000027581474744356666760000014074982471945128064_);}
	.st2{clip-path:url(#SVGID_00000051347508313568996890000006186338342711398039_);}
	.st3{clip-path:url(#SVGID_00000163756077403250435610000009732518810976702911_);}
	.st4{clip-path:url(#SVGID_00000091699982703646999110000000519321709233782675_);}
	.st5{clip-path:url(#SVGID_00000034795016788834872380000008809319208200275636_);}
	.st6{clip-path:url(#SVGID_00000085936928610099109470000010753532551242339747_);}
	.st7{clip-path:url(#SVGID_00000103226483955592008840000016594715789118534288_);}
	.st8{clip-path:url(#SVGID_00000174585670814404963260000011590477434390066317_);}
	.st9{clip-path:url(#SVGID_00000161628246305757117460000009112390625989242511_);}
	.st10{clip-path:url(#SVGID_00000165936599131461506250000007695845559265126529_);}
	.st11{clip-path:url(#SVGID_00000181075298229495809440000015306240924000737163_);}
	.st12{clip-path:url(#SVGID_00000160176893865425408570000014291798335735383470_);}
	.st13{clip-path:url(#SVGID_00000097502542332547587540000012347970749674166191_);}
	.st14{clip-path:url(#SVGID_00000176035462878033534350000018412815955546512023_);}
	.st15{clip-path:url(#SVGID_00000044158300604241580610000007541812932237528472_);}
	.st16{clip-path:url(#SVGID_00000162325520214820839840000015765172258482439337_);}
	.st17{clip-path:url(#SVGID_00000025404781413388073090000013402607692577722801_);}
	.st18{clip-path:url(#SVGID_00000039106457508491533850000011936800444336994985_);}
	.st19{clip-path:url(#SVGID_00000123407715232016902380000011382204547446992782_);}
	.st20{clip-path:url(#SVGID_00000073713526822228678280000012341466474431626422_);}
	.st21{fill:url(#SVGID_00000065071616110261609730000005144918857656516031_);}
	.st22{fill:#E03D31;}
</style>
<g>
	<g>
		<g>
			<g>
				<path id="SVGID_00000121991157422654111900000012283627571309473727_" d="M117.6,7v13.2c0,3.8,0.8,7,5.2,7
					c4.7,0,5.3-3.6,5.3-6.9v-0.9h-2.8v1.1c0,2.4-0.4,4.2-2.4,4.2c-1.9,0-2.5-1.7-2.5-4.3V6.9c0-2.3,0.5-3.8,2.4-3.8
					c2.1,0,2.4,1.7,2.4,3.8v1.2h2.8v-1c0-3.4-0.8-6.5-5.1-6.5C119.4,0.6,117.6,2.9,117.6,7"/>
			</g>
			<g>
				<defs>
					<path id="SVGID_1_" d="M117.6,7v13.2c0,3.8,0.8,7,5.2,7c4.7,0,5.3-3.6,5.3-6.9v-0.9h-2.8v1.1c0,2.4-0.4,4.2-2.4,4.2
						c-1.9,0-2.5-1.7-2.5-4.3V6.9c0-2.3,0.5-3.8,2.4-3.8c2.1,0,2.4,1.7,2.4,3.8v1.2h2.8v-1c0-3.4-0.8-6.5-5.1-6.5
						C119.4,0.6,117.6,2.9,117.6,7"/>
				</defs>
				<clipPath id="SVGID_00000027579217636774282440000006034066359437915280_">
					<use xlink:href="#SVGID_1_"  style="overflow:visible;"/>
				</clipPath>
				
					<rect x="117.6" y="0.6" style="clip-path:url(#SVGID_00000027579217636774282440000006034066359437915280_);" width="10.5" height="26.6"/>
			</g>
		</g>
	</g>
	<g>
		<g>
			<g>
				<path id="SVGID_00000100350926706687001760000000380748364754436485_" d="M136,11.2v10.3c0,3-0.9,3.7-2,3.7
					c-1.2,0-1.7-0.7-1.7-2.6V11.2h-2.2v12c0,3.5,1.8,4,3.1,4c1.4,0,2.3-0.5,2.8-1.9c0,0.6,0,1.4,0.1,1.6h2.1c0-0.7,0-2.2,0-4.3V11.2
					H136z"/>
			</g>
			<g>
				<defs>
					<path id="SVGID_00000055682424317943954400000009925987326479952825_" d="M136,11.2v10.3c0,3-0.9,3.7-2,3.7
						c-1.2,0-1.7-0.7-1.7-2.6V11.2h-2.2v12c0,3.5,1.8,4,3.1,4c1.4,0,2.3-0.5,2.8-1.9c0,0.6,0,1.4,0.1,1.6h2.1c0-0.7,0-2.2,0-4.3
						V11.2H136z"/>
				</defs>
				<clipPath id="SVGID_00000098223451009672401720000002839329902018324148_">
					<use xlink:href="#SVGID_00000055682424317943954400000009925987326479952825_"  style="overflow:visible;"/>
				</clipPath>
				
					<rect x="130.2" y="11.2" style="clip-path:url(#SVGID_00000098223451009672401720000002839329902018324148_);" width="8.1" height="16"/>
			</g>
		</g>
	</g>
	<g>
		<g>
			<g>
				<path id="SVGID_00000095314206959495468480000011546087924742350229_" d="M140.4,15c0,2.2,1,3.3,3.1,4.7
					c1.8,1.2,2.2,1.9,2.2,3.4c0,1.5-0.5,2.2-1.7,2.2c-1.1,0-1.7-0.8-1.7-2.3v-0.7h-2.2V23c0,2.2,0.8,4.2,3.9,4.2c2.7,0,4-1.5,4-4.4
					c0-2.6-1.1-3.7-3.4-5.2c-1.6-1-2-1.6-2-2.8c0-1.2,0.4-1.9,1.5-1.9c1.1,0,1.5,0.8,1.5,2.1v0.9h2.1v-0.7c0-2.4-0.9-4.1-3.7-4.1
					C141.5,10.9,140.4,12.6,140.4,15"/>
			</g>
			<g>
				<defs>
					<path id="SVGID_00000052094808852080623630000014840042835888799360_" d="M140.4,15c0,2.2,1,3.3,3.1,4.7
						c1.8,1.2,2.2,1.9,2.2,3.4c0,1.5-0.5,2.2-1.7,2.2c-1.1,0-1.7-0.8-1.7-2.3v-0.7h-2.2V23c0,2.2,0.8,4.2,3.9,4.2c2.7,0,4-1.5,4-4.4
						c0-2.6-1.1-3.7-3.4-5.2c-1.6-1-2-1.6-2-2.8c0-1.2,0.4-1.9,1.5-1.9c1.1,0,1.5,0.8,1.5,2.1v0.9h2.1v-0.7c0-2.4-0.9-4.1-3.7-4.1
						C141.5,10.9,140.4,12.6,140.4,15"/>
				</defs>
				<clipPath id="SVGID_00000076573603465326748410000002906876355638698115_">
					<use xlink:href="#SVGID_00000052094808852080623630000014840042835888799360_"  style="overflow:visible;"/>
				</clipPath>
				
					<rect x="140.1" y="10.9" style="clip-path:url(#SVGID_00000076573603465326748410000002906876355638698115_);" width="7.9" height="16.2"/>
			</g>
		</g>
	</g>
	<g>
		<g>
			<g>
				<path id="SVGID_00000071539017508412205050000006997301519592184507_" d="M150.6,7.3v3.9h-1.8v2h1.8v11c0,2.4,1.1,3,2.6,3
					c0.5,0,1.2,0,1.7-0.2v-1.7c-0.2,0.1-0.7,0.1-1,0.1c-1,0-1.1-0.8-1.1-1.6V13.1h2.2v-2h-2.2V7.3H150.6z"/>
			</g>
			<g>
				<defs>
					<path id="SVGID_00000030446750065630487660000012641155626157245320_" d="M150.6,7.3v3.9h-1.8v2h1.8v11c0,2.4,1.1,3,2.6,3
						c0.5,0,1.2,0,1.7-0.2v-1.7c-0.2,0.1-0.7,0.1-1,0.1c-1,0-1.1-0.8-1.1-1.6V13.1h2.2v-2h-2.2V7.3H150.6z"/>
				</defs>
				<clipPath id="SVGID_00000101824475160934184520000011584433467544424886_">
					<use xlink:href="#SVGID_00000030446750065630487660000012641155626157245320_"  style="overflow:visible;"/>
				</clipPath>
				
					<rect x="148.8" y="7.3" style="clip-path:url(#SVGID_00000101824475160934184520000011584433467544424886_);" width="6.2" height="19.8"/>
			</g>
		</g>
	</g>
	<g>
		<g>
			<g>
				<path id="SVGID_00000127026382726274306400000015551914828172536998_" d="M158.4,22.4v-6.8c0-1.7,0.6-2.7,1.9-2.7
					c1.4,0,1.9,1.1,1.9,2.7v6.8c0,2-0.7,2.8-1.9,2.8C158.9,25.2,158.4,24.1,158.4,22.4 M156.2,15.6v6.7c0,3.4,1.5,4.9,4.1,4.9
					c2.5,0,4.1-1.5,4.1-4.9v-6.6c0-3-1.4-4.7-4.1-4.7C157.8,10.9,156.2,12.6,156.2,15.6"/>
			</g>
			<g>
				<defs>
					<path id="SVGID_00000037655118926022581170000014406129697462108820_" d="M158.4,22.4v-6.8c0-1.7,0.6-2.7,1.9-2.7
						c1.4,0,1.9,1.1,1.9,2.7v6.8c0,2-0.7,2.8-1.9,2.8C158.9,25.2,158.4,24.1,158.4,22.4 M156.2,15.6v6.7c0,3.4,1.5,4.9,4.1,4.9
						c2.5,0,4.1-1.5,4.1-4.9v-6.6c0-3-1.4-4.7-4.1-4.7C157.8,10.9,156.2,12.6,156.2,15.6"/>
				</defs>
				<clipPath id="SVGID_00000139977226777236811420000000881117485679651488_">
					<use xlink:href="#SVGID_00000037655118926022581170000014406129697462108820_"  style="overflow:visible;"/>
				</clipPath>
				
					<rect x="156.2" y="10.9" style="clip-path:url(#SVGID_00000139977226777236811420000000881117485679651488_);" width="8.2" height="16.2"/>
			</g>
		</g>
	</g>
	<g>
		<g>
			<g>
				<path id="SVGID_00000175288742743766096630000000471763720934304689_" d="M174.1,12.7c-0.4-1.3-1.2-1.8-2.4-1.8
					c-1.4,0-2.2,0.7-2.7,1.7c0-0.5,0-1-0.1-1.5h-2.1c0,0.8,0,1.7,0,4.5v11.2h2.2V16.1c0-1.8,0.3-3.1,1.8-3.1c1.1,0,1.5,0.6,1.5,2.3
					v11.7h2.2v-11c0-1.7,0.3-3,1.8-3c1.2,0,1.5,0.9,1.5,2.2v11.8h2.2V14.7c0-3-1.4-3.7-3-3.7C175.4,10.9,174.6,11.8,174.1,12.7"/>
			</g>
			<g>
				<defs>
					<path id="SVGID_00000109006852192246148490000014617660956846937521_" d="M174.1,12.7c-0.4-1.3-1.2-1.8-2.4-1.8
						c-1.4,0-2.2,0.7-2.7,1.7c0-0.5,0-1-0.1-1.5h-2.1c0,0.8,0,1.7,0,4.5v11.2h2.2V16.1c0-1.8,0.3-3.1,1.8-3.1c1.1,0,1.5,0.6,1.5,2.3
						v11.7h2.2v-11c0-1.7,0.3-3,1.8-3c1.2,0,1.5,0.9,1.5,2.2v11.8h2.2V14.7c0-3-1.4-3.7-3-3.7C175.4,10.9,174.6,11.8,174.1,12.7"/>
				</defs>
				<clipPath id="SVGID_00000053515435523857833800000007072435049890309012_">
					<use xlink:href="#SVGID_00000109006852192246148490000014617660956846937521_"  style="overflow:visible;"/>
				</clipPath>
				
					<rect x="166.8" y="10.9" style="clip-path:url(#SVGID_00000053515435523857833800000007072435049890309012_);" width="13.2" height="16"/>
			</g>
		</g>
	</g>
	<g>
		<g>
			<g>
				<path id="SVGID_00000105396791652464983540000013274006198664650160_" d="M182.9,26.9h2.2V11.2h-2.2V26.9z M182.9,8.5h2.2V5.3
					h-2.2V8.5z"/>
			</g>
			<g>
				<defs>
					<path id="SVGID_00000029748659716449091190000008127708103104374936_" d="M182.9,26.9h2.2V11.2h-2.2V26.9z M182.9,8.5h2.2V5.3
						h-2.2V8.5z"/>
				</defs>
				<clipPath id="SVGID_00000182515754850495956290000007191896115477098915_">
					<use xlink:href="#SVGID_00000029748659716449091190000008127708103104374936_"  style="overflow:visible;"/>
				</clipPath>
				
					<rect x="182.9" y="5.3" style="clip-path:url(#SVGID_00000182515754850495956290000007191896115477098915_);" width="2.2" height="21.6"/>
			</g>
		</g>
	</g>
	<g>
		<g>
			<g>
				<polygon id="SVGID_00000180346404427629875680000012193260007324382600_" points="187.3,11.2 187.3,13.2 192,13.2 186.8,25.4 
					186.8,26.9 194.2,26.9 194.4,24.9 189.3,24.9 194.4,12.7 194.4,11.2 				"/>
			</g>
			<g>
				<defs>
					<polygon id="SVGID_00000126283089161866357880000000244713351566278290_" points="187.3,11.2 187.3,13.2 192,13.2 186.8,25.4 
						186.8,26.9 194.2,26.9 194.4,24.9 189.3,24.9 194.4,12.7 194.4,11.2 					"/>
				</defs>
				<clipPath id="SVGID_00000013168329050994879690000007737808681572707735_">
					<use xlink:href="#SVGID_00000126283089161866357880000000244713351566278290_"  style="overflow:visible;"/>
				</clipPath>
				
					<rect x="186.8" y="11.2" style="clip-path:url(#SVGID_00000013168329050994879690000007737808681572707735_);" width="7.6" height="15.7"/>
			</g>
		</g>
	</g>
	<g>
		<g>
			<g>
				<path id="SVGID_00000070838081209970406930000016410087687271925176_" d="M198,15.7c0-1.7,0.4-2.9,1.9-2.9
					c1.6,0,1.8,1.5,1.8,2.9v2H198L198,15.7L198,15.7z M195.8,15.9v5.9c0,3.2,0.7,5.3,4,5.3c3.5,0,3.9-2.8,3.9-4.6v-0.1h-2.2v0.1
					c0,1.5-0.3,2.7-1.8,2.7c-1.5,0-1.9-1.6-1.9-3.2v-2.6h5.8v-3.5c0-2.8-0.9-5-3.9-5C196.6,10.9,195.8,13.6,195.8,15.9"/>
			</g>
			<g>
				<defs>
					<path id="SVGID_00000150811281018410602520000014014771305103747747_" d="M198,15.7c0-1.7,0.4-2.9,1.9-2.9
						c1.6,0,1.8,1.5,1.8,2.9v2H198L198,15.7L198,15.7z M195.8,15.9v5.9c0,3.2,0.7,5.3,4,5.3c3.5,0,3.9-2.8,3.9-4.6v-0.1h-2.2v0.1
						c0,1.5-0.3,2.7-1.8,2.7c-1.5,0-1.9-1.6-1.9-3.2v-2.6h5.8v-3.5c0-2.8-0.9-5-3.9-5C196.6,10.9,195.8,13.6,195.8,15.9"/>
				</defs>
				<clipPath id="SVGID_00000140718352865770003340000017051583940543523997_">
					<use xlink:href="#SVGID_00000150811281018410602520000014014771305103747747_"  style="overflow:visible;"/>
				</clipPath>
				
					<rect x="195.8" y="10.9" style="clip-path:url(#SVGID_00000140718352865770003340000017051583940543523997_);" width="8" height="16.2"/>
			</g>
		</g>
	</g>
	<g>
		<g>
			<g>
				<path id="SVGID_00000000181485698850583710000012184350443947673786_" d="M208,22.1v-6.4c0-1.7,0.5-2.8,1.8-2.8
					c1.8,0,2,1.6,2,3.3v5.2c0,2.2-0.4,3.7-2,3.7C208.5,25.1,208,24.1,208,22.1 M211.8,5.3v6.8c-0.3-0.6-1.1-1.2-2.5-1.2
					c-2.4,0-3.5,1.9-3.5,4.7v6.5c0,3,0.7,5.1,3.3,5.1c1.6,0,2.3-0.8,2.7-1.8c0,0.4,0,1.3,0.1,1.5h2.1c0-0.9,0-2.2,0-4.1V5.3H211.8z"
					/>
			</g>
			<g>
				<defs>
					<path id="SVGID_00000002373238908753625300000002840109877918426046_" d="M208,22.1v-6.4c0-1.7,0.5-2.8,1.8-2.8
						c1.8,0,2,1.6,2,3.3v5.2c0,2.2-0.4,3.7-2,3.7C208.5,25.1,208,24.1,208,22.1 M211.8,5.3v6.8c-0.3-0.6-1.1-1.2-2.5-1.2
						c-2.4,0-3.5,1.9-3.5,4.7v6.5c0,3,0.7,5.1,3.3,5.1c1.6,0,2.3-0.8,2.7-1.8c0,0.4,0,1.3,0.1,1.5h2.1c0-0.9,0-2.2,0-4.1V5.3H211.8z
						"/>
				</defs>
				<clipPath id="SVGID_00000129914992099590018610000014664586118402239915_">
					<use xlink:href="#SVGID_00000002373238908753625300000002840109877918426046_"  style="overflow:visible;"/>
				</clipPath>
				
					<rect x="205.8" y="5.3" style="clip-path:url(#SVGID_00000129914992099590018610000014664586118402239915_);" width="8.2" height="21.8"/>
			</g>
		</g>
	</g>
	<g>
		<g>
			<g>
				<path id="SVGID_00000134233491106461851900000006792466558174385543_" d="M119.6,31.5h2c3,0,3.8,1.6,3.8,4.4v1.4
					c0,2.9-0.6,4.8-3.4,4.8h-2.3C119.6,42.1,119.6,31.5,119.6,31.5z M117.6,29.7v27.2h2V43.9h2.2c2.9,0,3.4,1.2,3.4,4.8
					c0,1.9,0,6.5,0.3,8.2h2c-0.3-1.8-0.3-6.1-0.3-8.4c0-3.6-0.7-5-2.6-5.6c1.8-0.6,2.8-2.4,2.8-5.8v-1.4c0-4.2-1.7-6.1-5.8-6.1
					L117.6,29.7L117.6,29.7z"/>
			</g>
			<g>
				<defs>
					<path id="SVGID_00000088119938145868241840000004805568373731494810_" d="M119.6,31.5h2c3,0,3.8,1.6,3.8,4.4v1.4
						c0,2.9-0.6,4.8-3.4,4.8h-2.3C119.6,42.1,119.6,31.5,119.6,31.5z M117.6,29.7v27.2h2V43.9h2.2c2.9,0,3.4,1.2,3.4,4.8
						c0,1.9,0,6.5,0.3,8.2h2c-0.3-1.8-0.3-6.1-0.3-8.4c0-3.6-0.7-5-2.6-5.6c1.8-0.6,2.8-2.4,2.8-5.8v-1.4c0-4.2-1.7-6.1-5.8-6.1
						L117.6,29.7L117.6,29.7z"/>
				</defs>
				<clipPath id="SVGID_00000050654421657091685920000011999612443480795561_">
					<use xlink:href="#SVGID_00000088119938145868241840000004805568373731494810_"  style="overflow:visible;"/>
				</clipPath>
				
					<rect x="117.6" y="29.7" style="clip-path:url(#SVGID_00000050654421657091685920000011999612443480795561_);" width="9.9" height="27.2"/>
			</g>
		</g>
	</g>
	<g>
		<g>
			<g>
				<path id="SVGID_00000116914469683694085720000004268833295760525466_" d="M131.3,45.8c0-1.8,0.3-3.4,2.1-3.4c1.9,0,2,1.9,2,3.4
					V48h-4.2C131.3,48,131.3,45.8,131.3,45.8z M129.8,45.8v6.3c0,3.2,0.8,5.1,3.6,5.1c3.1,0,3.6-2.5,3.6-4.4v-0.1h-1.5v0.2
					c0,1.8-0.4,3-2,3c-1.8,0-2.1-2-2.1-3.8v-2.7h5.7v-3.5c0-2.5-0.7-4.7-3.5-4.7C130.7,41.1,129.8,43.3,129.8,45.8"/>
			</g>
			<g>
				<defs>
					<path id="SVGID_00000105425715562955585750000002151132408393372337_" d="M131.3,45.8c0-1.8,0.3-3.4,2.1-3.4c1.9,0,2,1.9,2,3.4
						V48h-4.2C131.3,48,131.3,45.8,131.3,45.8z M129.8,45.8v6.3c0,3.2,0.8,5.1,3.6,5.1c3.1,0,3.6-2.5,3.6-4.4v-0.1h-1.5v0.2
						c0,1.8-0.4,3-2,3c-1.8,0-2.1-2-2.1-3.8v-2.7h5.7v-3.5c0-2.5-0.7-4.7-3.5-4.7C130.7,41.1,129.8,43.3,129.8,45.8"/>
				</defs>
				<clipPath id="SVGID_00000025437424887248194060000018109530788958865037_">
					<use xlink:href="#SVGID_00000105425715562955585750000002151132408393372337_"  style="overflow:visible;"/>
				</clipPath>
				
					<rect x="129.8" y="41.1" style="clip-path:url(#SVGID_00000025437424887248194060000018109530788958865037_);" width="7.2" height="16.1"/>
			</g>
		</g>
	</g>
	<g>
		<g>
			<g>
				<path id="SVGID_00000079462724988561682540000009587200550140787585_" d="M139,45.6v6.6c0,3.1,0.8,5,3.5,5
					c2.9,0,3.6-2.2,3.6-4.8v-0.2h-1.5v0.3c0,2.5-0.6,3.3-2,3.3c-1.6,0-2-1.8-2-3.5v-6.6c0-2.2,0.6-3.3,2-3.3c1.7,0,1.9,1.5,1.9,3.1
					V46h1.5v-0.7c0-2.2-0.7-4.2-3.4-4.2C140,41.1,139,42.9,139,45.6"/>
			</g>
			<g>
				<defs>
					<path id="SVGID_00000028296495788999479680000008785480968531039878_" d="M139,45.6v6.6c0,3.1,0.8,5,3.5,5
						c2.9,0,3.6-2.2,3.6-4.8v-0.2h-1.5v0.3c0,2.5-0.6,3.3-2,3.3c-1.6,0-2-1.8-2-3.5v-6.6c0-2.2,0.6-3.3,2-3.3c1.7,0,1.9,1.5,1.9,3.1
						V46h1.5v-0.7c0-2.2-0.7-4.2-3.4-4.2C140,41.1,139,42.9,139,45.6"/>
				</defs>
				<clipPath id="SVGID_00000097470718638289858870000013951479856878498194_">
					<use xlink:href="#SVGID_00000028296495788999479680000008785480968531039878_"  style="overflow:visible;"/>
				</clipPath>
				
					<rect x="139" y="41.1" style="clip-path:url(#SVGID_00000097470718638289858870000013951479856878498194_);" width="7" height="16.1"/>
			</g>
		</g>
	</g>
	<g>
		<g>
			<g>
				<path id="SVGID_00000065771909601743148560000007745704254817455518_" d="M149.7,43.7c0-1.2,0-1.9-0.1-2.4h-1.5
					c0,1.2,0,2.9,0,5.3v10.3h1.5v-9.7c0-2.5,1.1-4.1,3.2-4.2v-1.9C151.6,41.2,150.3,41.9,149.7,43.7"/>
			</g>
			<g>
				<defs>
					<path id="SVGID_00000183234492156832960480000001450922495447551375_" d="M149.7,43.7c0-1.2,0-1.9-0.1-2.4h-1.5
						c0,1.2,0,2.9,0,5.3v10.3h1.5v-9.7c0-2.5,1.1-4.1,3.2-4.2v-1.9C151.6,41.2,150.3,41.9,149.7,43.7"/>
				</defs>
				<clipPath id="SVGID_00000039856381075363505370000017087031793763668612_">
					<use xlink:href="#SVGID_00000183234492156832960480000001450922495447551375_"  style="overflow:visible;"/>
				</clipPath>
				
					<rect x="148.2" y="41.2" style="clip-path:url(#SVGID_00000039856381075363505370000017087031793763668612_);" width="4.7" height="15.8"/>
			</g>
		</g>
	</g>
	<g>
		<g>
			<g>
				<path id="SVGID_00000129918183251060982810000014043844728024773788_" d="M160.2,41.3v10.1c0,3.7-1.1,4.3-2.3,4.3
					c-1.3,0-1.9-0.8-1.9-2.9V41.3h-1.5v11.9c0,3.6,1.8,3.9,3,3.9c1.4,0,2.3-0.5,2.7-2c0,0.6,0,1.5,0.1,1.7h1.4c0-0.7,0-2.2,0-4V41.3
					H160.2z"/>
			</g>
			<g>
				<defs>
					<path id="SVGID_00000179619644545310925030000002040807513885841322_" d="M160.2,41.3v10.1c0,3.7-1.1,4.3-2.3,4.3
						c-1.3,0-1.9-0.8-1.9-2.9V41.3h-1.5v11.9c0,3.6,1.8,3.9,3,3.9c1.4,0,2.3-0.5,2.7-2c0,0.6,0,1.5,0.1,1.7h1.4c0-0.7,0-2.2,0-4
						V41.3H160.2z"/>
				</defs>
				<clipPath id="SVGID_00000033329157273253810250000001507044690091346594_">
					<use xlink:href="#SVGID_00000179619644545310925030000002040807513885841322_"  style="overflow:visible;"/>
				</clipPath>
				
					<rect x="154.5" y="41.3" style="clip-path:url(#SVGID_00000033329157273253810250000001507044690091346594_);" width="7.2" height="15.8"/>
			</g>
		</g>
	</g>
	<g>
		<g>
			<g>
				<path id="SVGID_00000013895890579774898160000003612764951603144620_" d="M164.8,56.9h1.5V41.3h-1.5V56.9z M164.8,38.4h1.5v-3
					h-1.5L164.8,38.4L164.8,38.4z"/>
			</g>
			<g>
				<defs>
					<path id="SVGID_00000018958241596526497030000003501687534797442220_" d="M164.8,56.9h1.5V41.3h-1.5V56.9z M164.8,38.4h1.5v-3
						h-1.5L164.8,38.4L164.8,38.4z"/>
				</defs>
				<clipPath id="SVGID_00000170973098905222815200000017555332319080453554_">
					<use xlink:href="#SVGID_00000018958241596526497030000003501687534797442220_"  style="overflow:visible;"/>
				</clipPath>
				
					<rect x="164.8" y="35.3" style="clip-path:url(#SVGID_00000170973098905222815200000017555332319080453554_);" width="1.5" height="21.6"/>
			</g>
		</g>
	</g>
	<g>
		<g>
			<g>
				<path id="SVGID_00000099622979916470259750000009628425882601347986_" d="M169.7,37.5v3.9h-1.9v1.4h1.9v11.6
					c0,2.2,1,2.8,2.2,2.8c0.5,0,1.1,0,1.5-0.2v-1.2c-0.3,0.1-0.8,0.1-1.1,0.1c-1,0-1.2-0.9-1.2-1.7V42.7h2.4v-1.4h-2.4v-3.9
					L169.7,37.5L169.7,37.5z"/>
			</g>
			<g>
				<defs>
					<path id="SVGID_00000043444123570374791930000000003638355441646005_" d="M169.7,37.5v3.9h-1.9v1.4h1.9v11.6
						c0,2.2,1,2.8,2.2,2.8c0.5,0,1.1,0,1.5-0.2v-1.2c-0.3,0.1-0.8,0.1-1.1,0.1c-1,0-1.2-0.9-1.2-1.7V42.7h2.4v-1.4h-2.4v-3.9
						L169.7,37.5L169.7,37.5z"/>
				</defs>
				<clipPath id="SVGID_00000023247779805165642720000017572159112309883788_">
					<use xlink:href="#SVGID_00000043444123570374791930000000003638355441646005_"  style="overflow:visible;"/>
				</clipPath>
				
					<rect x="167.8" y="37.5" style="clip-path:url(#SVGID_00000023247779805165642720000017572159112309883788_);" width="5.7" height="19.7"/>
			</g>
		</g>
	</g>
	<g>
		<g>
			<g>
				<path id="SVGID_00000034070124843345767950000016893188317242680476_" d="M181.6,43c-0.3-1.4-1.2-1.9-2.4-1.9
					c-1.4,0-2.2,0.7-2.6,1.8c0-0.5,0-1.1-0.1-1.5h-1.4c0,0.8,0,1.8,0,4.5v11.1h1.5V46.2c0-2,0.4-3.7,2.1-3.7c1.3,0,1.7,0.8,1.7,2.6
					v11.8h1.5V46c0-1.8,0.4-3.4,2.1-3.4c1.5,0,1.7,1.2,1.7,2.5V57h1.5V44.7c0-3-1.4-3.5-2.8-3.5C182.8,41.1,182,42,181.6,43"/>
			</g>
			<g>
				<defs>
					<path id="SVGID_00000018229696557883179330000010868153194286720646_" d="M181.6,43c-0.3-1.4-1.2-1.9-2.4-1.9
						c-1.4,0-2.2,0.7-2.6,1.8c0-0.5,0-1.1-0.1-1.5h-1.4c0,0.8,0,1.8,0,4.5v11.1h1.5V46.2c0-2,0.4-3.7,2.1-3.7c1.3,0,1.7,0.8,1.7,2.6
						v11.8h1.5V46c0-1.8,0.4-3.4,2.1-3.4c1.5,0,1.7,1.2,1.7,2.5V57h1.5V44.7c0-3-1.4-3.5-2.8-3.5C182.8,41.1,182,42,181.6,43"/>
				</defs>
				<clipPath id="SVGID_00000142890846294197953560000005007726635844274603_">
					<use xlink:href="#SVGID_00000018229696557883179330000010868153194286720646_"  style="overflow:visible;"/>
				</clipPath>
				
					<rect x="175.1" y="41.1" style="clip-path:url(#SVGID_00000142890846294197953560000005007726635844274603_);" width="12.1" height="15.8"/>
			</g>
		</g>
	</g>
	<g>
		<g>
			<g>
				<path id="SVGID_00000075859953717238996920000015228239685804623007_" d="M191.3,45.8c0-1.8,0.3-3.4,2.1-3.4c1.9,0,2,1.9,2,3.4
					V48h-4.2V45.8z M189.8,45.8v6.3c0,3.2,0.8,5.1,3.6,5.1c3.1,0,3.6-2.5,3.6-4.4v-0.1h-1.5v0.2c0,1.8-0.4,3-2,3
					c-1.8,0-2.1-2-2.1-3.8v-2.7h5.7v-3.5c0-2.5-0.7-4.7-3.5-4.7C190.8,41.1,189.8,43.3,189.8,45.8"/>
			</g>
			<g>
				<defs>
					<path id="SVGID_00000038402004640499880250000007960864722023191727_" d="M191.3,45.8c0-1.8,0.3-3.4,2.1-3.4c1.9,0,2,1.9,2,3.4
						V48h-4.2V45.8z M189.8,45.8v6.3c0,3.2,0.8,5.1,3.6,5.1c3.1,0,3.6-2.5,3.6-4.4v-0.1h-1.5v0.2c0,1.8-0.4,3-2,3
						c-1.8,0-2.1-2-2.1-3.8v-2.7h5.7v-3.5c0-2.5-0.7-4.7-3.5-4.7C190.8,41.1,189.8,43.3,189.8,45.8"/>
				</defs>
				<clipPath id="SVGID_00000164486417743962584670000005665125834667978148_">
					<use xlink:href="#SVGID_00000038402004640499880250000007960864722023191727_"  style="overflow:visible;"/>
				</clipPath>
				
					<rect x="189.8" y="41.1" style="clip-path:url(#SVGID_00000164486417743962584670000005665125834667978148_);" width="7.2" height="16.1"/>
			</g>
		</g>
	</g>
	<g>
		<g>
			<g>
				<path id="SVGID_00000076603984451075266470000008178433980997853115_" d="M200.9,43c0-0.8,0-1.3-0.1-1.7h-1.4c0,0.8,0,1.6,0,4.7
					v10.9h1.5V46.8c0-3.5,1-4.2,2.4-4.2c1.3,0,1.8,1,1.8,2.5v11.9h1.5V44.8c0-2.8-1.4-3.7-3-3.7C202.4,41.1,201.4,41.7,200.9,43"/>
			</g>
			<g>
				<defs>
					<path id="SVGID_00000064352551270110347240000014751523591802219432_" d="M200.9,43c0-0.8,0-1.3-0.1-1.7h-1.4
						c0,0.8,0,1.6,0,4.7v10.9h1.5V46.8c0-3.5,1-4.2,2.4-4.2c1.3,0,1.8,1,1.8,2.5v11.9h1.5V44.8c0-2.8-1.4-3.7-3-3.7
						C202.4,41.1,201.4,41.7,200.9,43"/>
				</defs>
				<clipPath id="SVGID_00000116223623457027863060000012767270570983850145_">
					<use xlink:href="#SVGID_00000064352551270110347240000014751523591802219432_"  style="overflow:visible;"/>
				</clipPath>
				
					<rect x="199.4" y="41.1" style="clip-path:url(#SVGID_00000116223623457027863060000012767270570983850145_);" width="7.3" height="15.8"/>
			</g>
		</g>
	</g>
	<g>
		<g>
			<g>
				<path id="SVGID_00000136373849752631198980000005017025310835473070_" d="M210.1,37.5v3.9h-1.9v1.4h1.9v11.6
					c0,2.2,1,2.8,2.2,2.8c0.5,0,1.1,0,1.5-0.2v-1.2c-0.3,0.1-0.8,0.1-1.1,0.1c-1,0-1.2-0.9-1.2-1.7V42.7h2.4v-1.4h-2.4v-3.9
					L210.1,37.5L210.1,37.5z"/>
			</g>
			<g>
				<defs>
					<path id="SVGID_00000003822842012243163000000008921441665081543317_" d="M210.1,37.5v3.9h-1.9v1.4h1.9v11.6
						c0,2.2,1,2.8,2.2,2.8c0.5,0,1.1,0,1.5-0.2v-1.2c-0.3,0.1-0.8,0.1-1.1,0.1c-1,0-1.2-0.9-1.2-1.7V42.7h2.4v-1.4h-2.4v-3.9
						L210.1,37.5L210.1,37.5z"/>
				</defs>
				<clipPath id="SVGID_00000129187309899223714340000016261950644446693539_">
					<use xlink:href="#SVGID_00000003822842012243163000000008921441665081543317_"  style="overflow:visible;"/>
				</clipPath>
				
					<rect x="208.2" y="37.5" style="clip-path:url(#SVGID_00000129187309899223714340000016261950644446693539_);" width="5.7" height="19.7"/>
			</g>
		</g>
	</g>
	
		<linearGradient id="SVGID_00000011025212569367363640000007418772301731385252_" gradientUnits="userSpaceOnUse" x1="1.9174" y1="33.0058" x2="95.1192" y2="33.0058" gradientTransform="matrix(1 0 0 -1 0 64)">
		<stop  offset="0" style="stop-color:#D5791A"/>
		<stop  offset="4.466860e-03" style="stop-color:#D5791A"/>
		<stop  offset="4.840000e-02" style="stop-color:#D5711F"/>
		<stop  offset="0.1381" style="stop-color:#D86226"/>
		<stop  offset="0.2354" style="stop-color:#D9532B"/>
		<stop  offset="0.3431" style="stop-color:#DB472E"/>
		<stop  offset="0.4692" style="stop-color:#DC3F2F"/>
		<stop  offset="0.6579" style="stop-color:#DC3D30"/>
	</linearGradient>
	<path style="fill:url(#SVGID_00000011025212569367363640000007418772301731385252_);" d="M85,33.8c4.7-3.3,7.9-8.8,7.9-14.9
		c0-10-8.2-18.2-18.3-18.2l0,0h-3.8h-1.4H57.1l0,0H24.8c8.4,0,15.6,3,21.5,8.9c3,3,5.2,6.4,6.7,10l0.5,1.1l-6.7,3.4l-0.5-1.3
		c-1.1-2.9-2.9-5.5-5.2-7.8c-4.5-4.4-9.9-6.7-16.2-6.7s-11.8,2.3-16.2,6.7S1.9,24.7,1.9,31s2.3,11.8,6.7,16.2
		c4.5,4.4,9.9,6.7,16.2,6.7s11.8-2.3,16.2-6.7c2.3-2.3,4.1-4.9,5.2-7.8l0.5-1.3l6.7,3.4L53,42.5c-1.5,3.6-3.7,7-6.7,9.9
		c-5.9,5.9-13,8.8-21.3,8.9H57v0h13.7V36.6l0,0c1.2,0.3,2.5,0.4,3.8,0.4c0.7,0,1.5,0,2.2-0.1l9,24.5l9.4-0.1L85,33.8z M74.6,30.5
		c-6.4,0-11.7-5.2-11.7-11.7S68.1,7.2,74.6,7.2s11.7,5.2,11.7,11.7S81,30.5,74.6,30.5z"/>
	<rect x="130.2" y="1.2" class="st22" width="83.7" height="1.4"/>
	<rect x="117.6" y="60" class="st22" width="96.3" height="1.4"/>
</g>
</svg>
