<?xml version="1.0" encoding="utf-8"?>
<!-- Generator: Adobe Illustrator 27.0.0, SVG Export Plug-In . SVG Version: 6.00 Build 0)  -->
<svg version="1.1" id="Layer_1" xmlns="http://www.w3.org/2000/svg" xmlns:xlink="http://www.w3.org/1999/xlink" x="0px" y="0px"
	 viewBox="0 0 41 41" style="enable-background:new 0 0 41 41;" xml:space="preserve">
<style type="text/css">
	.st0{clip-path:url(#SVGID_00000094590811604346949830000015293945106551265470_);}
	.st1{fill:#686868;}
</style>
<g id="Group_2220" transform="translate(376.991 -109)">
	<g>
		<defs>
			<rect id="SVGID_1_" x="-376.9" y="109.3" width="40.01" height="40"/>
		</defs>
		<clipPath id="SVGID_00000026137566850939477820000008576959848599955840_">
			<use xlink:href="#SVGID_1_"  style="overflow:visible;"/>
		</clipPath>
		
			<g id="Group_2220-2" transform="translate(-376.991 109)" style="clip-path:url(#SVGID_00000026137566850939477820000008576959848599955840_);">
			<path id="Path_75" class="st1" d="M35.72,0.3H4.49c-2.42,0-4.39,1.96-4.4,4.39v31.23c0.01,2.42,1.98,4.38,4.4,4.39h31.22
				c2.42-0.01,4.38-1.97,4.39-4.39V4.69C40.1,2.27,38.14,0.31,35.72,0.3 M12.34,32.84H6.72V16.18h5.63V32.84z M11.72,13.3
				c-0.57,0.61-1.36,0.96-2.2,0.96c-0.84,0.01-1.63-0.35-2.19-0.98c-0.6-0.62-0.92-1.44-0.91-2.3c-0.02-0.85,0.31-1.67,0.91-2.27
				C7.9,8.1,8.69,7.76,9.52,7.77c0.84-0.02,1.64,0.32,2.21,0.93c0.6,0.61,0.92,1.43,0.9,2.28C12.65,11.85,12.32,12.68,11.72,13.3
				 M33.78,32.83h-5.63v-8.92c0.08-1.01-0.14-2.02-0.63-2.9c-0.46-0.63-1.21-0.97-1.99-0.91c-1.04-0.07-2.03,0.46-2.56,1.35
				c-0.63,1.37-0.91,2.88-0.81,4.39v7h-5.53V16.18h5.16v3.38c0.6-1.19,1.49-2.22,2.58-2.98c1.05-0.65,2.28-0.97,3.51-0.94
				c0.95-0.01,1.89,0.16,2.76,0.52c0.77,0.32,1.44,0.84,1.95,1.49c0.45,0.61,0.75,1.31,0.9,2.05c0.21,1.19,0.3,2.39,0.27,3.6
				L33.78,32.83z"/>
		</g>
	</g>
</g>
</svg>
